<svg xmlns="http://www.w3.org/2000/svg" version="1.0" preserveAspectRatio="xMidYMid meet" viewBox="98.2 162.32 443.9 314.53">

<g transform="translate(0.000000,640.000000) scale(0.100000,-0.100000)" fill="#000000" stroke="none">
<path d="M1778 4770 c-196 -31 -365 -111 -497 -235 -136 -128 -234 -329 -276 -565 -24 -138 -29 -430 -16 -956 13 -496 21 -581 72 -738 147 -449 532 -691 1016 -637 423 48 695 291 799 716 44 181 49 324 36 957 -11 499 -15 585 -32 670 -22 106 -68 245 -108 323 -112 223 -317 384 -562 445 -97 24 -337 35 -432 20z m337 -345 c271 -57 439 -301 448 -649 l2 -88 -600 -229 c-330 -126 -610 -232 -622 -235 l-23 -6 0 288 c0 316 11 433 54 555 68 195 207 323 396 363 86 19 258 19 345 1z m463 -1497 c-4 -399 -4 -404 -31 -501 -80 -299 -249 -438 -547 -454 -205 -11 -355 39 -470 156 -142 144 -198 334 -200 676 l0 71 343 131 c188 73 432 161 542 197 110 36 234 79 275 95 41 16 79 30 83 30 5 1 7 -180 5 -401z"/>
<path d="M5330 4694 c-96 -37 -882 -326 -1265 -464 -27 -10 -144 -53 -260 -95 -115 -42 -252 -92 -304 -111 -52 -19 -96 -35 -98 -38 -2 -2 -2 -75 -1 -163 l3 -161 405 149 c223 82 406 149 408 149 1 0 2 -445 2 -990 l0 -990 -410 0 -410 0 0 -160 0 -160 1010 0 1011 0 -3 158 -3 157 -418 3 -417 2 2 1048 3 1047 412 150 413 150 0 173 c0 94 -3 172 -7 172 -5 -1 -37 -12 -73 -26z"/>
</g>
</svg>